<svg xmlns="http://www.w3.org/2000/svg" viewBox="0 0 512 512" width="512" height="512">
<title>Macedon — 8-ray sun</title>
<g fill="#000"><circle cx="256" cy="256" r="48"/><g transform="translate(256 256)"><polygon points="0,0 27,-6 180,0 27,6" fill="#000"/><polygon points="0,0 23,15 127,127 15,23" fill="#000"/><polygon points="0,0 6,27 0,180 -6,27" fill="#000"/><polygon points="0,0 -15,23 -127,127 -23,15" fill="#000"/><polygon points="0,0 -27,6 -180,0 -27,-6" fill="#000"/><polygon points="0,0 -23,-15 -127,-127 -15,-23" fill="#000"/><polygon points="0,0 -6,-27 0,-180 6,-27" fill="#000"/><polygon points="0,0 15,-23 127,-127 23,-15" fill="#000"/></g></g>
</svg>